<svg xmlns="http://www.w3.org/2000/svg" viewBox="0 0 52.73 66.74"><defs><style>.cls-1{isolation:isolate;}.cls-2,.cls-3{fill:#41ff00;}.cls-3{mix-blend-mode:screen;opacity:0.5;}</style></defs><g class="cls-1"><g id="Ebene_2" data-name="Ebene 2"><g id="Aufteilung"><g id="Bildmarke_Klein" data-name="Bildmarke Klein"><path class="cls-2" d="M42.78,49.49A18.89,18.89,0,0,1,47.9,60.77a29.43,29.43,0,0,1-16.51,5.94c-.43,0-.87,0-1.31,0A29.46,29.46,0,0,1,12,60.55c-.63-.49-1.24-1-1.83-1.55a18.14,18.14,0,0,1,.77-2.85,19.24,19.24,0,0,1,5.8-8.27,17.68,17.68,0,0,1,2.12-1.51,16,16,0,0,1,2.28-1.21,16.79,16.79,0,0,1,3.2-1.1c0-.24,0-.48,0-.72-.09-1.31-.23-2.61-.42-3.88h0c-.17-1.19-.38-2.36-.62-3.51-.09-.4-.18-.8-.28-1.19A51,51,0,0,0,21.21,29h0c-.43-1.16-.89-2.29-1.39-3.4-.1-.23-.2-.44-.31-.67-.26.22-.52.45-.77.69s-.68.67-1,1a16.86,16.86,0,0,0-4,14.12,8.55,8.55,0,0,0,.17.88c-.18-.27-.36-.55-.52-.83a16,16,0,0,1-1.23-13.58A18.28,18.28,0,0,0,1.39,43.92c0,.15,0,.3,0,.45a29.38,29.38,0,0,1-.88-7.19c0-.62,0-1.24.06-1.85A29.35,29.35,0,0,1,6,20.1a18.18,18.18,0,0,0-2.68-.19A19.5,19.5,0,0,0,0,20.19a13.58,13.58,0,0,1,11.57-6.45,3.85,3.85,0,0,1,.48,0h.18a.47.47,0,0,1,0-.16v0c.12-.44.25-.88.4-1.31A19,19,0,0,1,26.47,0a18.88,18.88,0,0,0-2.6,8.28,29,29,0,0,1,6.21-.66,29.45,29.45,0,0,1,17.92,6,18.34,18.34,0,0,0-21.22,3.09h.36a16,16,0,0,1,13.73,7.81A16.79,16.79,0,0,0,30.42,21a17.11,17.11,0,0,0-6.29,1.2c-.4.16-.79.33-1.17.52q1.11,1.48,2.1,3.06c.18.26.35.54.51.81a51.36,51.36,0,0,1,5,10.87,48.33,48.33,0,0,1,1.63,6.37A18.66,18.66,0,0,1,37,45.3c.34.15.66.31,1,.49a19.12,19.12,0,0,1,3.45,2.39A16.83,16.83,0,0,1,42.78,49.49Z"/><path class="cls-3" d="M39.56,36.05a7.45,7.45,0,0,0,9.22,5.11,7.75,7.75,0,0,0,1.69-.72,7.35,7.35,0,0,0,2.26-2,10.51,10.51,0,0,1-7-11.8,7.57,7.57,0,0,0-1,.22,7.42,7.42,0,0,0-3.84,2.59,7.61,7.61,0,0,0-.69,1.08A7.37,7.37,0,0,0,39.56,36.05Z"/></g></g></g></g></svg>